<svg xmlns="http://www.w3.org/2000/svg" viewBox="0 0 512 512" width="512" height="512" role="img" aria-label="JellyFit">
  <title>JellyFit</title>
  <rect width="512" height="512" rx="112.6" fill="#A71C3B"/>
  <path d="M7.3 59.36Q-2.54 59.68 -8.41 55.87Q-14.28 52.06 -16.51 46.35Q-18.73 40.63 -17.62 34.76Q-16.51 28.89 -12.38 24.6Q-8.25 20.32 -1.9 19.68Q8.57 19.05 13.33 14.13Q18.09 9.21 18.09 -0.95V-130.79Q18.09 -144.44 25.4 -151.74Q32.7 -159.04 46.35 -159.04Q60 -159.04 67.3 -151.74Q74.6 -144.44 74.6 -130.79V-6.35Q74.6 14.92 67.3 29.36Q60 43.81 45.24 51.27Q30.47 58.73 7.3 59.36Z" transform="translate(215.27 362.72)" fill="#FFFFFF"/><g transform="translate(215.27 362.72)"><g transform="translate(-17.29 -282.72) scale(1.98)"><path d="M32 5c11 0 15 7 19 13.5S59 29 59 38c0 14-12 21-27 21S5 52 5 38c0-9 4-13 8-19.5S21 5 32 5z" fill="#E8899A"/><ellipse cx="22" cy="26" rx="5" ry="9" fill="#fff" fill-opacity=".55" transform="rotate(25 22 26)"/></g></g>
</svg>
